<?xml version="1.0" encoding="utf-8"?>
<svg version="1.1" id="Layer_1" x="0px" y="0px" viewBox="0 0 450 170" style="enable-background:new 0 0 450 170;" xmlns="http://www.w3.org/2000/svg">
  <defs>
    <view id="view-1" viewBox="7.8 191.5 128 128">
      <title>View 1</title>
    </view>
  </defs>
  <style type="text/css">
	.st0{fill:#00B4EB;}
	.st1{fill:#0056A2;}
	.st2{fill:#50B748;}
</style>
  <ellipse style="paint-order: stroke; fill-rule: nonzero; fill: rgba(227, 226, 75, 0.925);" cx="71.8" cy="255.499" rx="59.36" ry="59.36"/>
  <g transform="matrix(0.867787, 0, 0, 0.867787, -149.000687, 85.074852)" style="">
    <title>Logo</title>
    <g transform="matrix(0.358424, 0, 0, 0.358424, 237.218842, 145.760513)" style="">
      <g>
        <g>
          <path class="st0" d="M15.8,57c-0.9,0-1.7-0.2-2.5-0.7c-2.4-1.4-3.3-4.5-1.9-7L35.7,7.2c1.4-2.4,4.5-3.3,7-1.9 c2.4,1.4,3.3,4.5,1.9,7L20.2,54.5C19.3,56.1,17.6,57,15.8,57z"/>
        </g>
      </g>
      <g>
        <g>
          <path class="st1" d="M15.8,97.7c-0.9,0-1.7-0.2-2.5-0.7c-2.4-1.4-3.3-4.5-1.9-7l24.3-42.1c1.4-2.4,4.5-3.3,7-1.9 c2.4,1.4,3.3,4.5,1.9,7L20.2,95.1C19.3,96.8,17.6,97.7,15.8,97.7z"/>
        </g>
      </g>
      <g>
        <g>
          <path class="st2" d="M56,97.7c-0.9,0-1.7-0.2-2.6-0.7c-2.4-1.4-3.3-4.5-1.9-7l24.3-42.1c1.4-2.4,4.5-3.3,7-1.9 c2.4,1.4,3.3,4.5,1.9,7L60.4,95.1C59.5,96.8,57.8,97.7,56,97.7z"/>
        </g>
      </g>
      <g>
        <g>
          <circle class="st2" cx="54.4" cy="60.6" r="5.1"/>
        </g>
      </g>
    </g>
    <g transform="matrix(0.653797, 0, 0, 0.653797, 167.355331, 123.927994)" style="">
      <title>SLT</title>
      <g>
        <path class="st1" d="M103.1,110.6c-4.7-1.4-8.8-2.6-8.8-6c0-3.3,4.2-3.6,6-3.6c3.6,0,8.6,1.6,12.8,4.1l0.5,0.3l3.7-8l-0.3-0.2 c-4.4-2.9-10.4-4.7-15.9-4.7c-10.1,0-16.7,5-16.7,12.9c0,9.1,7.9,11.4,14.3,13.2c4.8,1.4,9,2.6,9,6.1c0,2.7-2.5,4.3-7,4.3 c-4.6,0-10.4-2.5-14.7-6.3l-0.5-0.4l-3.9,7.9l0.3,0.2c5,4.4,11.9,7.1,18.7,7.1c10.4,0,17.1-5.2,17.1-13.3 C117.5,114.9,109.6,112.5,103.1,110.6z"/>
      </g>
      <g>
        <polygon class="st1" points="132.7,128.7 132.7,92.8 123.5,92.8 123.5,137.1 151.4,137.1 151.4,128.7 &#9;&#9;&#9;"/>
      </g>
      <g>
        <polygon class="st1" points="180.6,92.8 148.1,92.8 148.1,101.1 161.6,101.1 161.6,137.1 171,137.1 171,101.1 184.8,101.1 &#9;&#9;&#9;"/>
      </g>
    </g>
    <g transform="matrix(0.903608, 0, 0, 0.903608, 27.186832, 12.550763)" style="">
      <title>Bar</title>
      <path style="fill: rgb(80, 183, 72);" d="M 223.774 235.833 C 221.008 235.833 218.751 238.078 218.751 240.856 C 218.751 243.622 220.995 245.891 223.774 245.891 L 225.872 245.891 L 229.585 235.845 L 223.774 235.845 L 223.774 235.833 Z"/>
      <g transform="matrix(0.18767, 0, 0, 0.18767, 214.650711, 216.42749)" style="">
        <polygon style="fill: rgb(255, 223, 13);" points="102.853,103.402 83.071,156.929 123.798,156.929 143.58,103.402 &#9;"/>
        <path style="fill: rgb(255, 223, 13);" d="M211.006,156.929h29.673c14.739,0,26.764-11.96,26.764-26.764s-11.96-26.764-26.764-26.764h-9.826 L211.006,156.929z"/>
      </g>
      <polygon style="fill: rgb(224, 132, 86);" points="245.964 235.833 242.252 245.879 249.895 245.879 253.607 235.833"/>
      <path style="fill: rgb(255, 255, 255);" d="M 279.193 235.833 L 267.401 235.833 C 268.359 237.265 268.929 239 268.929 240.856 C 268.929 242.712 268.359 244.435 267.401 245.879 L 279.193 245.879 C 281.959 245.879 284.216 243.634 284.216 240.856 C 284.216 238.078 281.972 235.833 279.193 235.833 Z"/>
      <path style="fill: rgb(1, 86, 162);" d="M 223.774 249.991 L 279.218 249.991 C 284.253 249.991 288.342 245.903 288.342 240.868 C 288.329 235.833 284.241 231.744 279.206 231.744 L 223.774 231.744 C 218.739 231.744 214.651 235.833 214.651 240.868 C 214.651 245.903 218.739 249.991 223.774 249.991 Z M 267.402 235.845 L 279.194 235.845 C 281.96 235.845 284.217 238.09 284.217 240.868 C 284.217 243.634 281.972 245.891 279.194 245.891 L 267.402 245.891 C 268.36 244.459 268.93 242.724 268.93 240.868 C 268.93 239.012 268.36 237.289 267.402 235.845 Z M 257.963 235.833 L 259.807 235.833 C 262.573 235.833 264.842 238.089 264.842 240.868 C 264.842 243.634 262.597 245.891 259.819 245.891 L 254.25 245.891 L 257.963 235.833 Z M 245.964 235.833 L 253.607 235.833 L 249.895 245.878 L 242.252 245.878 L 245.964 235.833 Z M 233.953 235.833 L 241.596 235.833 L 237.884 245.878 L 230.241 245.878 L 233.953 235.833 Z M 223.774 235.845 L 229.585 235.845 L 225.873 245.879 L 223.774 245.879 C 221.008 245.879 218.751 243.634 218.751 240.856 C 218.751 238.102 220.996 235.845 223.774 235.845 Z"/>
    </g>
  </g>
  <g>
    <g>
      <g>
        <path class="st2" d="M246.8,92.6c-13.4,0-23.6,9.6-23.6,22.4c0,12.6,10.4,22.5,23.6,22.5c13.2,0,23.6-9.9,23.6-22.5 C270.4,102.2,260.3,92.6,246.8,92.6z M246.9,129.1c-7.9,0-14.3-6.3-14.3-14.1c0-7.7,6.4-14,14.3-14c7.7,0,14,6.3,14,14 C260.9,122.8,254.7,129.1,246.9,129.1z"/>
      </g>
      <g>
        <path class="st2" d="M304.7,113.7c3.9-1.6,6.3-5.1,6.3-9.5c0-7-5.9-11.3-15.4-11.3h-19.7v44.3h20.3c10.2,0,16.5-4.8,16.5-12.4 C312.6,119.3,309.6,115.2,304.7,113.7z M295.1,110.5h-10.1v-9.6h10.1h0.2c3.9,0,6.2,1.7,6.2,4.7 C301.5,108.7,299.2,110.5,295.1,110.5z M285.1,118.5h10.3c4.8,0,7.7,1.9,7.7,5.2c0,1.7-0.7,3-2,3.9c-1.3,0.9-3.3,1.5-5.8,1.5l0,0 l-10.3,0V118.5z"/>
      </g>
      <g>
        <rect x="318.8" y="92.8" class="st2" width="9.3" height="44.3"/>
      </g>
      <g>
        <polygon class="st2" points="332,92.8 332,101.1 345.5,101.1 345.5,137.1 354.8,137.1 354.8,101.1 368.3,101.1 368.3,92.8 &#9;&#9;&#9;"/>
      </g>
      <g>
        <polygon class="st2" points="381.6,128.9 381.6,119 402.6,119 402.6,110.8 381.6,110.8 381.6,101 405,101 405,92.8 372.3,92.8 &#10;&#9;&#9;&#9;&#9;372.3,137.1 405.8,137.1 405.8,128.9 &#9;&#9;&#9;"/>
      </g>
      <g>
        <polygon class="st2" points="420.6,128.7 420.6,92.8 411.3,92.8 411.3,137.1 439.3,137.1 439.3,128.7 &#9;&#9;&#9;"/>
      </g>
      <g>
        <polygon class="st2" points="207.5,92.8 194.2,120 187.6,106.9 178.6,106.9 191.2,132.7 197.2,132.7 209.2,107.8 209.3,137.1 &#10;&#9;&#9;&#9;&#9;217.8,137.1 217.8,92.8 &#9;&#9;&#9;"/>
      </g>
    </g>
    <g>
      <g>
        <path class="st1" d="M173.6,151.1v2.1h-4.5v12h-2.4v-12h-4.5v-2.1H173.6z"/>
        <path class="st1" d="M187.9,158.8v6.4h-2.3v-5.8c0-1.6-1-2.6-2.6-2.6c-1.9,0-3.1,1.5-3.1,3.4v5h-2.3v-14.2h2.3v5.8 c0.8-1.5,2.1-2.2,4-2.2C186.4,154.7,187.9,156.3,187.9,158.8z"/>
        <path class="st1" d="M203.5,160.7h-8.1c0.4,1.7,1.6,2.7,3.3,2.7c1.2,0,2.2-0.4,3-1.3l1.2,1.3c-1.1,1.1-2.6,1.8-4.4,1.8 c-3.3,0-5.5-2.2-5.5-5.4c0-3.3,2.2-5.5,5.4-5.5C202.2,154.4,203.7,156.9,203.5,160.7z M201.4,159.1c-0.1-1.7-1.2-2.8-3-2.8 c-1.7,0-2.9,1.1-3.2,2.8H201.4z"/>
        <path class="st1" d="M224.4,153.2c-2.8,0-5,2.2-5,5c0,2.8,2.2,5,5,5c1.4,0,2.9-0.6,3.9-1.7l1.4,1.6c-1.4,1.4-3.5,2.3-5.5,2.3 c-4.1,0-7.3-3.1-7.3-7.2c0-4,3.2-7.1,7.4-7.1c2,0,4,0.8,5.4,2.2l-1.4,1.7C227.3,153.8,225.9,153.2,224.4,153.2z"/>
        <path class="st1" d="M245,159.8c0,3.3-2.3,5.5-5.6,5.5c-3.3,0-5.6-2.2-5.6-5.5c0-3.2,2.3-5.4,5.6-5.4 C242.7,154.4,245,156.6,245,159.8z M236.1,159.9c0,2.1,1.3,3.5,3.3,3.5c1.9,0,3.3-1.4,3.3-3.5c0-2.1-1.4-3.5-3.3-3.5 C237.5,156.4,236.1,157.8,236.1,159.9z"/>
        <path class="st1" d="M260.7,158.5v6.7h-2.3v-6c0-1.6-1-2.6-2.6-2.6c-1.8,0-2.9,1.3-3,2.9v5.7h-2.3v-10.7h2.3v2.1 c0.8-1.5,2.1-2.1,4-2.1C259.2,154.4,260.7,156,260.7,158.5z"/>
        <path class="st1" d="M277.1,158.5v6.7h-2.3v-6c0-1.6-1-2.6-2.6-2.6c-1.8,0-2.9,1.3-3,2.9v5.7h-2.3v-10.7h2.3v2.1 c0.8-1.5,2.1-2.1,4-2.1C275.6,154.4,277.1,156,277.1,158.5z"/>
        <path class="st1" d="M292.7,160.7h-8.1c0.4,1.7,1.6,2.7,3.3,2.7c1.2,0,2.2-0.4,3-1.3l1.2,1.3c-1.1,1.1-2.6,1.8-4.4,1.8 c-3.3,0-5.5-2.2-5.5-5.4c0-3.3,2.2-5.5,5.4-5.5C291.5,154.4,293,156.9,292.7,160.7z M290.7,159.1c-0.1-1.7-1.2-2.8-3-2.8 c-1.7,0-2.9,1.1-3.1,2.8H290.7z"/>
        <path class="st1" d="M302.7,156.4c-1.9,0-3.2,1.4-3.2,3.4c0,2,1.3,3.4,3.2,3.4c1.3,0,2.4-0.4,3.2-1.3l1.3,1.3c-1,1.3-2.5,2-4.6,2 c-3.2,0-5.4-2.2-5.4-5.4c0-3.3,2.2-5.5,5.4-5.5c1.9,0,3.4,0.6,4.4,1.8l-1.3,1.5C305,156.9,303.9,156.4,302.7,156.4z"/>
        <path class="st1" d="M318.6,164.5c-0.8,0.5-1.7,0.8-2.6,0.8c-1.6,0-3-0.9-3-3.1v-5.6h-1.5v-1.7h1.5v-2.9h2.3v2.9h3.2v1.7h-3.2 v5.1c0,1.1,0.4,1.5,1.2,1.5c0.5,0,1-0.2,1.6-0.5L318.6,164.5z"/>
        <path class="st1" d="M326.3,152.5c0,0.8-0.6,1.4-1.4,1.4c-0.8,0-1.4-0.6-1.4-1.4c0-0.8,0.6-1.4,1.4-1.4 C325.7,151.1,326.3,151.6,326.3,152.5z M326.1,155.5v9.7h-2.3v-9.7H326.1z"/>
        <path class="st1" d="M342.8,159.8c0,3.3-2.3,5.5-5.6,5.5c-3.3,0-5.6-2.2-5.6-5.5c0-3.2,2.3-5.4,5.6-5.4 C340.5,154.4,342.8,156.6,342.8,159.8z M333.9,159.9c0,2.1,1.4,3.5,3.3,3.5c1.9,0,3.3-1.4,3.3-3.5c0-2.1-1.4-3.5-3.3-3.5 C335.2,156.4,333.9,157.8,333.9,159.9z"/>
        <path class="st1" d="M358.5,158.5v6.7h-2.3v-6c0-1.6-1-2.6-2.6-2.6c-1.8,0-2.9,1.3-3,2.9v5.7h-2.3v-10.7h2.3v2.1 c0.8-1.5,2.1-2.1,4-2.1C357,154.4,358.5,156,358.5,158.5z"/>
      </g>
    </g>
  </g>
</svg>